<svg xmlns="http://www.w3.org/2000/svg" version="1.0" width="139.000000pt" height="117.000000pt" viewBox="0 0 139.000000 117.000000" preserveAspectRatio="xMidYMid meet">
<metadata fill="#f59f00">
Created by potrace 1.16, written by Peter Selinger 2001-2019
</metadata>
<g transform="translate(0.000000,117.000000) scale(0.100000,-0.100000)" fill="#f59f00" stroke="none">
<path d="M410 1129 c-140 -18 -240 -127 -248 -272 -5 -85 12 -147 55 -203 l33 -44 -35 -45 c-42 -55 -55 -100 -55 -186 0 -153 115 -276 270 -287 81 -5 134 9 199 53 l51 34 51 -34 c65 -44 118 -58 199 -53 148 11 257 121 268 270 6 85 -11 147 -55 205 l-33 44 24 32 c75 98 88 219 35 325 -53 108 -144 163 -265 163 -82 0 -149 -23 -196 -68 l-27 -26 -32 27 c-66 56 -145 78 -239 65z m160 -64 c19 -10 107 -89 195 -176 127 -126 157 -161 148 -170 -10 -10 -44 18 -167 139 -99 98 -169 159 -197 172 -81 36 -180 21 -243 -38 -81 -76 -88 -221 -14 -299 17 -18 19 -26 10 -35 -15 -15 -47 13 -75 67 -30 56 -30 164 0 221 27 50 100 117 145 132 46 16 156 9 198 -13z m412 13 c50 -15 123 -78 150 -132 28 -54 30 -165 4 -216 -10 -19 -94 -112 -187 -206 -93 -94 -169 -177 -169 -185 0 -42 68 -89 127 -89 38 0 89 33 114 72 25 41 21 107 -10 148 -16 23 -18 30 -7 39 26 22 68 -50 69 -118 2 -146 -160 -227 -277 -137 -45 34 -59 74 -40 112 8 16 87 101 174 189 98 99 165 174 175 197 20 50 19 124 -4 173 -54 120 -203 161 -320 88 -48 -30 -61 -32 -61 -8 0 15 68 63 106 75 42 12 111 12 156 -2z m-457 -87 c24 -11 101 -80 190 -170 119 -120 147 -153 137 -163 -10 -10 -44 19 -165 139 -83 83 -162 156 -174 162 -34 17 -95 13 -131 -9 -63 -39 -79 -138 -32 -202 19 -26 19 -29 4 -35 -35 -13 -81 88 -69 150 11 51 50 102 97 126 53 26 91 26 143 2z m452 -2 c76 -37 112 -114 91 -199 -10 -39 -34 -68 -191 -227 l-180 -183 5 -52 c5 -45 11 -57 50 -94 136 -128 348 -50 365 134 6 60 -11 113 -52 168 -13 18 -14 23 -1 33 11 9 20 3 45 -36 62 -94 65 -195 8 -280 -95 -141 -272 -160 -389 -43 l-48 47 -47 -47 c-47 -47 -121 -80 -178 -80 -81 0 -187 67 -228 144 -29 55 -30 163 -2 221 21 43 323 357 339 352 25 -8 6 -33 -129 -167 -163 -162 -195 -211 -195 -294 1 -187 222 -285 360 -160 21 20 44 51 50 70 20 61 7 93 -75 174 -41 41 -75 80 -75 87 0 28 30 9 103 -65 l76 -79 170 171 c93 94 174 184 180 199 48 126 -91 238 -202 163 -28 -20 -38 -22 -46 -12 -13 16 9 38 59 60 48 21 86 20 137 -5z m-464 -87 c17 -15 14 -19 -45 -79 -58 -59 -63 -62 -80 -46 -20 18 -24 73 -7 104 13 26 68 50 94 42 11 -3 28 -12 38 -21z m422 14 c54 -23 73 -86 39 -135 l-16 -23 -64 63 c-51 51 -61 65 -52 77 10 11 38 27 56 31 1 1 18 -5 37 -13z m-299 -137 c4 -7 -56 -75 -144 -163 -82 -83 -155 -161 -161 -173 -28 -56 0 -136 61 -173 52 -31 114 -24 158 20 36 36 26 66 -45 140 -54 55 -63 69 -52 79 11 9 27 -3 81 -60 91 -98 99 -143 31 -195 -108 -82 -246 -28 -279 109 -16 67 7 103 172 270 86 86 159 157 164 157 4 0 10 -5 14 -11z m108 -102 c31 -29 56 -58 56 -63 0 -5 -27 -36 -60 -69 l-60 -59 -60 59 c-33 33 -60 64 -60 70 0 13 107 115 120 115 5 0 34 -24 64 -53z m-235 -359 c-31 -26 -85 -23 -114 7 -30 29 -34 89 -8 117 16 18 19 16 80 -44 l64 -63 -22 -17z m481 70 c0 -73 -78 -114 -139 -72 l-23 16 63 64 c59 60 64 63 81 47 11 -10 18 -30 18 -55z" fill="#f59f00"/>
</g>
</svg>